HIERARCHY
ROOT Hips
{
	OFFSET -3.958830 18.904000 13.208200
	CHANNELS 6 Xposition Yposition Zposition Zrotation Yrotation Xrotation 
	JOINT LHipJoint
	{
		OFFSET 0.000000 0.000000 0.000000
		CHANNELS 3 Zrotation Yrotation Xrotation
		JOINT LeftUpLeg
		{
			OFFSET 1.800000 -1.400000 0.085000
			CHANNELS 3 Zrotation Yrotation Xrotation
			JOINT LeftLeg
			{
				OFFSET 2.215000 -6.000000 0.000000
				CHANNELS 3 Zrotation Yrotation Xrotation
				JOINT LeftFoot
				{
					OFFSET 2.500000 -6.900000 0.000000
					CHANNELS 3 Zrotation Yrotation Xrotation
					JOINT LeftToeBase
					{
						OFFSET 0.200000 -0.500000 1.950000
						CHANNELS 3 Zrotation Yrotation Xrotation
						End Site
						{
							OFFSET 0.000000 0.000000 0.000000
						}
					}
				}
			}
		}
	}
	JOINT RHipJoint
	{
		OFFSET 0.000000 0.000000 0.000000
		CHANNELS 3 Zrotation Yrotation Xrotation
		JOINT RightUpLeg
		{
			OFFSET -1.800000 -1.400000 0.085000
			CHANNELS 3 Zrotation Yrotation Xrotation
			JOINT RightLeg
			{
				OFFSET -2.215000 -6.000000 0.000000
				CHANNELS 3 Zrotation Yrotation Xrotation
				JOINT RightFoot
				{
					OFFSET -2.500000 -6.900000 0.000000
					CHANNELS 3 Zrotation Yrotation Xrotation
					JOINT RightToeBase
					{
						OFFSET -0.200000 -0.500000 1.950000
						CHANNELS 3 Zrotation Yrotation Xrotation
						End Site
						{
							OFFSET 0.000000 0.000000 0.000000
						}
					}
				}
			}
		}
	}
	JOINT LowerBack
	{
		OFFSET 0.000000 0.000000 0.000000
		CHANNELS 3 Zrotation Yrotation Xrotation
		JOINT Spine
		{
			OFFSET -0.087000 1.940000 -0.288900
			CHANNELS 3 Zrotation Yrotation Xrotation
			JOINT Spine1
			{
				OFFSET 0.000000 1.950000 0.060000
				CHANNELS 3 Zrotation Yrotation Xrotation
				JOINT Neck
				{
					OFFSET 0.000000 0.000000 0.000000
					CHANNELS 3 Zrotation Yrotation Xrotation
					JOINT Neck1
					{
						OFFSET 0.000000 1.600000 0.340000
						CHANNELS 3 Zrotation Yrotation Xrotation
						JOINT Head
						{
							OFFSET 0.000000 1.667000 -0.240000
							CHANNELS 3 Zrotation Yrotation Xrotation
							End Site
							{
								OFFSET 0.000000 0.000000 0.000000
							}
						}
					}
				}
				JOINT LeftShoulder
				{
					OFFSET 0.000000 0.000000 0.000000
					CHANNELS 3 Zrotation Yrotation Xrotation
					JOINT LeftArm
					{
						OFFSET 2.700000 1.550000 -0.730000
						CHANNELS 3 Zrotation Yrotation Xrotation
						JOINT LeftForeArm
						{
							OFFSET 5.450000 0.000000 0.000000
							CHANNELS 3 Zrotation Yrotation Xrotation
							JOINT LeftHand
							{
								OFFSET 3.450000 0.000000 0.000000
								CHANNELS 3 Zrotation Yrotation Xrotation
								JOINT LeftHandIndex1
								{
									OFFSET 0.750000 0.000000 0.000000
									CHANNELS 3 Zrotation Yrotation Xrotation
									End Site
									{
										OFFSET 0.000000 0.000000 0.000000
									}
								}
							}
						}
					}
				}
				JOINT RightShoulder
				{
					OFFSET 0.000000 0.000000 0.000000
					CHANNELS 3 Zrotation Yrotation Xrotation
					JOINT RightArm
					{
						OFFSET -2.700000 1.550000 -0.730000
						CHANNELS 3 Zrotation Yrotation Xrotation
						JOINT RightForeArm
						{
							OFFSET -5.450000 0.000000 0.000000
							CHANNELS 3 Zrotation Yrotation Xrotation
							JOINT RightHand
							{
								OFFSET -3.450000 0.000000 0.000000
								CHANNELS 3 Zrotation Yrotation Xrotation
								JOINT RightHandIndex1
								{
									OFFSET -0.750000 0.000000 0.000000
									CHANNELS 3 Zrotation Yrotation Xrotation
									End Site
									{
										OFFSET 0.000000 0.000000 0.000000
									}
								}
							}
						}
					}
				}
			}
		}
	}
}
MOTION
Frames: 10
Frame Time: 0.016667
0.750810 16.545140 -3.950230 -0.336066 -11.821360 -0.654164 -15.476681 12.383887 3.195891 5.257350 -6.691748 -16.551015 -15.657710 15.600830 41.721062 0.085822 10.078934 1.398298 0.243570 -0.208770 -0.156080 18.405411 -7.775526 5.026030 -2.936892 11.121992 -55.365641 -4.055585 -9.821884 66.472439 -1.542409 -10.151291 1.402421 0.025190 0.867520 0.270820 -3.363124 -4.578610 -8.840321 10.437842 -8.519041 23.235699 1.315932 -6.517132 6.202808 -0.047721 -8.033122 -8.687120 -19.136186 9.403132 34.934126 -7.820640 4.156320 -8.400590 -17.955436 -2.526137 2.145322 -27.769255 4.122398 -6.871008 -52.840551 -65.488610 27.950683 -4.123109 3.045218 0.816950 0.530000 -0.364370 0.396920 18.541290 6.217898 4.866096 32.666841 -7.220818 -12.299350 11.233566 41.180498 2.723420 1.138265 -1.343549 -0.552200 0.673890 0.373090 -0.310490 
0.765760 16.498450 -3.970380 -0.644503 -12.567721 -0.481857 -15.488928 12.222112 3.194417 5.676690 -6.843603 -17.307944 -16.068256 16.201127 42.618572 0.176104 10.294976 1.332194 0.250000 -0.187750 -0.153670 18.436063 -7.546892 5.249443 -2.969957 12.163883 -57.446356 -4.726756 -9.727641 69.120134 -1.655218 -10.571738 1.290806 0.028070 0.853690 0.253800 -3.415522 -4.583731 -8.951377 10.926604 -8.821844 24.143727 1.173848 -6.607743 5.539518 -0.015071 -8.438818 -8.820278 -19.755545 9.996381 34.198370 -7.820500 4.459930 -8.379140 -18.497079 -2.854524 2.354966 -28.140277 4.913373 -7.307845 -50.917862 -64.982739 26.352500 -4.088644 3.049794 0.800050 0.515470 -0.358300 0.405460 19.034665 6.824465 4.881452 32.531681 -6.615439 -12.313649 10.478891 42.168432 2.645783 1.160917 -1.356588 -0.540720 0.669430 0.349510 -0.298450 
0.787700 16.432290 -4.001890 -1.170976 -14.101465 -1.047431 -15.510680 12.073447 3.180094 6.557826 -6.762808 -17.292434 -17.093438 17.309181 43.574569 0.283457 10.657973 1.213409 0.283440 -0.142020 -0.130040 18.458350 -7.253343 5.534401 -2.454513 13.978916 -59.322107 -6.088940 -9.144906 73.042607 -1.850219 -11.112650 1.157321 0.041870 0.810480 0.225210 -3.449943 -4.650427 -9.106054 11.526265 -9.238757 27.087695 0.727906 -6.538506 3.992962 0.135636 -9.277309 -8.968035 -21.368928 10.922813 33.204249 -7.654980 4.383720 -10.512110 -19.901405 -3.461764 2.352938 -28.586150 5.647361 -8.078782 -46.239193 -62.978910 22.299729 -3.999923 3.002303 0.841090 0.456490 -0.316760 0.416630 20.152290 8.022638 5.053493 32.721079 -5.885456 -12.777110 8.787855 44.109555 2.343265 1.169555 -1.333731 -0.538170 0.694650 0.320230 -0.296480 
0.809490 16.362750 -4.037560 -1.716326 -15.679926 -1.168212 -15.539916 11.868618 3.218247 7.750878 -6.788335 -17.942817 -18.536181 18.714984 44.612429 0.437688 11.088910 1.071467 0.313710 -0.100630 -0.103460 18.480556 -6.930734 5.805456 -2.091560 15.822562 -61.238797 -6.998445 -8.715062 76.250288 -2.017589 -11.548046 1.043487 0.044710 0.754720 0.205300 -3.489755 -4.691036 -9.267485 12.193129 -9.652642 29.589686 0.256581 -6.407315 2.228618 0.343819 -9.960854 -9.221308 -22.775090 11.828489 32.285489 -7.516280 4.414260 -12.191680 -20.943600 -4.188331 2.382495 -29.918295 5.697782 -8.696302 -39.806436 -58.835498 16.813975 -3.899244 2.957497 0.866490 0.392470 -0.270310 0.424300 20.800480 9.217005 5.317042 33.985418 -5.269944 -13.582614 7.037096 46.633525 1.916133 1.195138 -1.323718 -0.517270 0.693720 0.283700 -0.288290 
0.818850 16.305020 -4.062640 -2.337226 -16.914193 -1.039428 -15.550785 11.653977 3.291636 9.325016 -6.746053 -18.688651 -20.318292 20.198290 45.215330 0.557264 11.512162 0.918827 0.336670 -0.071070 -0.079940 18.510819 -6.701322 5.973140 -1.526612 17.347274 -62.186586 -7.782752 -8.299505 78.507954 -2.145963 -11.841497 0.967681 0.044290 0.706420 0.200710 -3.572250 -4.622122 -9.390878 13.091980 -10.158779 30.894312 -0.643304 -6.391943 0.912836 0.609478 -10.227540 -9.380553 -23.514957 12.631939 32.311447 -7.650570 4.616730 -13.837520 -21.688452 -5.032260 2.319220 -31.368274 4.810902 -8.802863 -33.008246 -52.703752 11.387383 -3.834387 2.877466 0.899970 0.344680 -0.227080 0.419230 20.980323 10.100549 5.438071 36.681008 -4.092351 -14.474186 5.817166 48.620817 1.451667 1.207606 -1.284990 -0.499350 0.691870 0.269200 -0.289730 
0.825600 16.268780 -4.076360 -2.961095 -17.697190 -0.618525 -15.540114 11.466225 3.394722 10.894038 -6.610476 -19.405193 -22.346891 21.468593 45.024288 0.631760 11.806286 0.806389 0.358250 -0.045100 -0.070590 18.546760 -6.587540 6.024811 -0.645255 18.333338 -62.036492 -8.871275 -7.468875 79.446277 -2.212664 -11.903923 0.950434 0.050530 0.666500 0.192590 -3.687053 -4.486380 -9.463190 14.279371 -10.765699 31.101605 -1.795091 -6.466874 -0.129039 0.876566 -10.293150 -9.668290 -24.144250 13.481800 33.078031 -7.194240 4.686260 -14.958870 -21.870691 -6.044925 2.319762 -33.648498 2.908576 -8.247298 -26.266373 -44.215305 6.494822 -3.782036 2.765274 0.942860 0.297940 -0.188770 0.422390 20.576620 10.901375 5.614306 40.475010 -2.870340 -15.533429 5.015780 50.437172 0.942972 1.213388 -1.245217 -0.494040 0.694520 0.257380 -0.291230 
0.821460 16.270900 -4.069840 -3.542890 -18.017209 -0.569630 -15.510839 11.476393 3.465949 12.214478 -6.234717 -19.248860 -23.594665 21.986662 44.204184 0.669399 11.847331 0.787675 0.380380 -0.012690 -0.049180 18.558648 -6.669607 5.897587 0.786101 18.457324 -59.571635 -9.619155 -6.582714 78.114233 -2.199289 -11.572843 1.049145 0.046750 0.631580 0.180730 -3.754636 -4.415747 -9.431977 15.395164 -11.381594 30.852031 -2.776852 -6.665474 -0.769982 1.217070 -10.280095 -10.154954 -25.157971 14.474820 34.803358 -6.709510 4.714230 -16.278590 -22.043552 -7.307835 2.530011 -36.942409 0.735503 -7.287252 -18.903169 -34.864310 2.449437 -3.744509 2.602148 0.984420 0.245340 -0.132740 0.432020 20.055575 11.879729 5.896924 44.449601 -1.701869 -16.833558 4.910825 52.518843 0.505786 1.230972 -1.186979 -0.479430 0.723450 0.237500 -0.281530 
0.806560 16.292220 -4.039220 -3.374841 -17.938617 -0.711349 -15.462931 11.654583 3.509880 12.479878 -5.811457 -18.438443 -24.164166 21.784930 42.875583 0.626975 11.697148 0.835001 0.377360 -0.020850 -0.039540 18.550257 -6.960183 5.588885 1.611062 17.373708 -55.735864 -9.889049 -5.902993 74.975180 -2.083568 -10.985694 1.218882 0.035110 0.627560 0.175920 -3.782035 -4.366307 -9.297065 15.830701 -11.737833 29.625165 -3.891992 -7.090347 -0.989597 1.607282 -9.995853 -10.342521 -25.396021 15.286297 36.536113 -6.854390 5.069970 -16.671850 -22.749165 -8.093256 2.578926 -39.790814 -1.098573 -5.683256 -12.801636 -25.669111 0.037067 -3.771142 2.450515 1.020060 0.230930 -0.108880 0.432160 19.939716 12.080753 5.961605 48.189887 -0.682223 -17.920443 7.696164 55.722571 1.182128 1.234708 -1.163108 -0.488640 0.753450 0.243030 -0.286760 
0.774410 16.330030 -3.998230 -2.936772 -18.659616 -0.352800 -15.408506 11.829223 3.502528 12.272419 -5.034462 -17.607864 -24.641361 21.364362 40.806031 0.565567 11.433099 0.938183 0.326160 -0.082180 -0.064230 18.552817 -7.265418 5.322072 2.744518 16.615473 -51.769265 -10.674563 -4.396262 70.608939 -1.871985 -10.166792 1.456755 0.009400 0.679450 0.161400 -3.847935 -4.229957 -9.126781 15.921391 -11.475274 27.082721 -4.973221 -7.219365 -0.636132 1.766311 -9.735257 -10.425298 -25.271410 16.200125 37.644929 -6.285780 5.628790 -14.999690 -23.300961 -8.387469 2.662730 -42.726259 -2.101568 -3.948982 -8.294881 -17.439058 -1.121969 -3.863320 2.330627 1.010690 0.258760 -0.138720 0.421060 20.087551 11.943030 5.962251 51.099548 0.427354 -17.975380 14.152238 58.297422 3.669402 1.273712 -1.173874 -0.519740 0.788750 0.276650 -0.284510 
0.734320 16.382040 -3.951030 -2.398248 -19.289227 0.469595 -15.358129 11.983371 3.442899 11.489996 -4.296925 -17.316441 -24.226633 20.624445 39.114128 0.456617 11.125535 1.072633 0.250720 -0.178550 -0.124660 18.565577 -7.542415 5.099010 3.386912 15.908801 -48.718810 -10.990072 -3.319864 66.147724 -1.630665 -9.388585 1.706899 -0.013870 0.779590 0.144800 -3.930265 -4.074543 -8.910984 15.984125 -11.090145 23.686499 -5.975887 -7.363767 0.012149 1.823343 -9.786071 -10.146179 -24.961898 16.700223 36.894650 -6.129200 6.081090 -12.400480 -22.947796 -7.425423 2.415444 -46.642894 -2.516414 -2.717382 -4.578091 -11.343596 -1.579012 -3.995618 2.241983 0.983300 0.328500 -0.215360 0.424630 19.477807 10.926931 5.734218 54.111735 1.964559 -16.707269 24.005118 60.375969 8.309945 1.317789 -1.223277 -0.582840 0.830900 0.324420 -0.283220 
